/* XPM */
static char *c69c733b87294d9ea283d8f20d78b2f3cdS6OLwknMgi9KDW[] = {
/* columns rows colors chars-per-pixel */
"16 16 3 1 ",
"  c black",
". c red",
"X c #2500FF",
/* pixels */
"                ",
" .XXX.......XX. ",
" .XXX.......XX. ",
" .XX.X......XX. ",
" .XX.X......XX. ",
" .XX..X.....XX. ",
" .XX..X.....XX. ",
" .XX...X....XX. ",
" .XX...X....XX. ",
" .XX....X...XX. ",
" .XX....X...XX. ",
" .XX.....X..XX. ",
" .XX.....X..XX. ",
" .XX......XXXX. ",
" .XX......XXXX. ",
"                "
};
